<?xml version="1.0" encoding="utf-8"?>
<!-- Generator: Adobe Illustrator 24.0.0, SVG Export Plug-In . SVG Version: 6.00 Build 0)  -->
<svg version="1.1"
	 id="Layer_1" inkscape:version="0.92.2 5c3e80d, 2017-08-06" sodipodi:docname="heart.svg" xmlns:cc="http://creativecommons.org/ns#" xmlns:dc="http://purl.org/dc/elements/1.1/" xmlns:inkscape="http://www.inkscape.org/namespaces/inkscape" xmlns:rdf="http://www.w3.org/1999/02/22-rdf-syntax-ns#" xmlns:sodipodi="http://sodipodi.sourceforge.net/DTD/sodipodi-0.dtd" xmlns:svg="http://www.w3.org/2000/svg"
	 xmlns="http://www.w3.org/2000/svg" xmlns:xlink="http://www.w3.org/1999/xlink" x="0px" y="0px" viewBox="0 0 486.8 344.3"
	 style="enable-background:new 0 0 486.8 344.3;" xml:space="preserve">
<style type="text/css">
	.st0{fill:#FFFFFF;stroke:#000000;stroke-width:5;stroke-miterlimit:10;}
	.st1{fill:#3EAAF8;}
	.st2{font-family:'Calibri';}
	.st3{font-size:8px;}
	.st4{fill:none;}
	.st5{fill-rule:evenodd;clip-rule:evenodd;fill:#FFF8F8;stroke:#FFFFFF;}
	.st6{fill:none;stroke:#FFFFFF;stroke-width:0.75;}
	.st7{fill:#FFFFFF;}
</style>
<image style="overflow:visible;" width="313" height="325" xlink:href="382F1BF.jpg"  transform="matrix(0.6614 0 0 0.6614 565.9965 53.6416)">
</image>
<sodipodi:namedview  bordercolor="#666666" borderopacity="1" gridtolerance="10" guidetolerance="10" id="namedview171" inkscape:current-layer="Layer_1" inkscape:cx="81.457145" inkscape:cy="126.25448" inkscape:pageopacity="1" inkscape:pageshadow="2" inkscape:window-height="856" inkscape:window-maximized="0" inkscape:window-width="1053" inkscape:window-x="0" inkscape:window-y="0" inkscape:zoom="1.0187242" objecttolerance="10" pagecolor="#000000" showgrid="false">
	</sodipodi:namedview>
<g id="g16">
	
		<image style="overflow:visible;enable-background:new    ;" width="262" height="352" id="image12" xlink:href="C:\Users\rr200\Documents\cycif.org-master-old\_includes\64E0ABAA.png"  transform="matrix(0.6107 0 0 0.6107 115.9555 39.8568)">
	</image>
	
		<image style="overflow:visible;enable-background:new    ;" width="262" height="352" id="image14" xlink:href="C:\Users\rr200\Documents\cycif.org-master-old\_includes\64E0ABAB.png"  transform="matrix(0.6107 0 0 0.6107 115.9555 39.8568)">
	</image>
</g>
<path id="path18" class="st0" d="M287.6,28.6"/>
<a id="a3884" xlink:href="./osd-A20_left_circumflex_artery" >
	<text id="text94" transform="matrix(1 0 0 1 819.8266 100.8949)" class="st1 st2 st3">left circumflex artery</text>
</a>
<image style="overflow:visible;enable-background:new    ;" width="136" height="113" id="image96" xlink:href="C:\Users\rr200\Documents\cycif.org-master-old\_includes\64E0ABAC.png"  transform="matrix(0.2574 0 0 0.2574 837.6144 105.0267)">
</image>
<a id="a4702" xlink:href="./osd-A4_posterior_left_ventricle" >
	<text transform="matrix(1 0 0 1 316.5911 190.3946)" class="st1 st2 st3">posterior </text>
	<text transform="matrix(1 0 0 1 311.7415 201.1946)" class="st1 st2 st3">left ventricle</text>
</a>
<image style="overflow:visible;enable-background:new    ;" width="131" height="106" id="image120" xlink:href="C:\Users\rr200\Documents\cycif.org-master-old\_includes\64E0ABAD.png"  transform="matrix(0.2676 0 0 0.2676 313.9427 205.8373)">
</image>
<a id="a4707" xlink:href="./osd-A5_posterior_left_ventricle" >
	<text transform="matrix(1 0 0 1 375.1019 190.3952)" class="st1 st2 st3">posterior </text>
	<text transform="matrix(1 0 0 1 369.2523 201.1952)" class="st1 st2 st3">left ventricle</text>
</a>
<a id="a4712" xlink:href="./osd-A6_posterior_left_ventricle" >
	<text transform="matrix(1 0 0 1 435.8112 190.395)" class="st1 st2 st3">posterior </text>
	<text transform="matrix(1 0 0 1 430.9615 201.195)" class="st1 st2 st3">left ventricle</text>
</a>
<image style="overflow:visible;enable-background:new    ;" width="118" height="107" id="image134" xlink:href="C:\Users\rr200\Documents\cycif.org-master-old\_includes\64E0AB94.png"  transform="matrix(0.2636 0 0 0.2636 374.4284 205.9174)">
</image>
<image style="overflow:visible;enable-background:new    ;" width="162" height="109" id="image136" xlink:href="C:\Users\rr200\Documents\cycif.org-master-old\_includes\64E0AB95.png"  transform="matrix(0.2598 0 0 0.2598 429.6536 205.8658)">
</image>
<g>
	<a id="a4717" xlink:href="./osd-A2_anterior_left_ventricle" >
		<text transform="matrix(1 0 0 1 316.6946 282.8627)" class="st1 st2 st3">anterior</text>
		<text transform="matrix(1 0 0 1 308.9446 293.6627)" class="st1 st2 st3">left ventricle</text>
	</a>
	
		<image style="overflow:visible;enable-background:new    ;" width="175" height="106" id="image150" xlink:href="C:\Users\rr200\Documents\cycif.org-master-old\_includes\64E0AB96.png"  transform="matrix(0.2715 0 0 0.2715 305.5 298.4663)">
	</image>
</g>
<g>
	<a id="a4722" xlink:href="./osd-A7_lateral_left_ventricle" >
		<text transform="matrix(1 0 0 1 372.3217 83.3)" class="st1 st2 st3">lateral</text>
		<text transform="matrix(1 0 0 1 362.5385 94.1001)" class="st1 st2 st3">left ventricle</text>
	</a>
	
		<image style="overflow:visible;enable-background:new    ;" width="175" height="109" id="image152" xlink:href="C:\Users\rr200\Documents\cycif.org-master-old\_includes\64E0AB97.png"  transform="matrix(0.2658 0 0 0.2658 359.0204 98.8086)">
	</image>
</g>
<path class="st4" d="M32.4,14.6"/>
<path id="path915" inkscape:connector-curvature="0" sodipodi:nodetypes="cc" class="st5" d="M179.3,148.5"/>
<path class="st5" d="M32.4,14.6"/>
<path id="path2021" inkscape:connector-curvature="0" sodipodi:nodetypes="cc" class="st5" d="M153.3,135.3"/>
<path class="st5" d="M32.4,14.6"/>
<path id="path3863" inkscape:connector-curvature="0" sodipodi:nodetypes="cc" class="st5" d="M168.2,183.2"/>
<path class="st5" d="M32.4,14.6"/>
<path id="path4391" inkscape:connector-curvature="0" sodipodi:nodetypes="cc" class="st5" d="M163,217.9"/>
<path class="st5" d="M32.4,14.6"/>
<path id="path4823" inkscape:connector-curvature="0" sodipodi:nodetypes="cc" class="st5" d="M147.7,233.2"/>
<path class="st5" d="M32.4,14.6"/>
<path id="path5207" inkscape:connector-curvature="0" sodipodi:nodetypes="cc" class="st5" d="M123.1,233.9"/>
<path class="st5" d="M32.4,14.6"/>
<path id="path5441" inkscape:connector-curvature="0" sodipodi:nodetypes="cc" class="st5" d="M81.1,231.3"/>
<g>
	<a id="a4727" xlink:href="./osd-A3_interventricular_septum" >
		<text id="text166" transform="matrix(1 0 0 1 66.111 268.4797)" class="st1 st2 st3">interventricular septum</text>
	</a>
	
		<image style="overflow:visible;enable-background:new    ;" width="144" height="113" id="image168" xlink:href="C:\Users\rr200\Documents\cycif.org-master-old\_includes\64E0AB98.png"  transform="matrix(0.2572 0 0 0.2572 82.2813 272.5139)">
	</image>
	<g>
		<g>
			<line class="st6" x1="209.8" y1="287" x2="209.8" y2="202.8"/>
			<g>
				<polygon class="st7" points="211.6,203.4 209.8,200.3 207.9,203.4 				"/>
			</g>
		</g>
	</g>
	<line class="st6" x1="209.8" y1="287" x2="131.9" y2="287"/>
</g>
<a id="a4730" xlink:href="./osd-A8_right_ventricle" >
	<text id="text162" transform="matrix(1 0 0 1 33.406 212.666)" class="st1 st2 st3">right ventricle</text>
</a>
<image style="overflow:visible;enable-background:new    ;" width="144" height="113" id="image164" xlink:href="C:\Users\rr200\Documents\cycif.org-master-old\_includes\9478D0B4.png"  transform="matrix(0.2572 0 0 0.2572 37.4689 217.8143)">
</image>
<g>
	<g>
		<line class="st6" x1="84.6" y1="228.3" x2="179.8" y2="228.3"/>
		<g>
			<polygon class="st7" points="179.1,230.6 183,228.3 179.1,226.1 			"/>
		</g>
	</g>
</g>
<a id="a4733" xlink:href="./osd-A17_mid_distal_right_coronary_artery" >
	<text transform="matrix(1 0 0 1 498.9736 83.4051)" class="st1 st2 st3">mid distal right </text>
	<text transform="matrix(1 0 0 1 498.4836 94.205)" class="st1 st2 st3">coronary artery</text>
</a>
<image style="overflow:visible;enable-background:new    ;" width="174" height="107" id="image160" xlink:href="C:\Users\rr200\Documents\cycif.org-master-old\_includes\9478D0B5.png"  transform="matrix(0.2754 0 0 0.2754 497.5504 98.6415)">
</image>
<line class="st6" x1="578.5" y1="110.6" x2="554.1" y2="110.6"/>
<line class="st6" x1="578.4" y1="203" x2="578.4" y2="110.6"/>
<g>
	<g>
		<line class="st6" x1="578.6" y1="203.4" x2="647.5" y2="203.4"/>
		<g>
			<polygon class="st7" points="646.2,206.1 653.6,203.4 646.2,200.8 			"/>
		</g>
	</g>
</g>
<g>
	<a id="a192" xlink:href="./osd-A1_left_atrium" >
		<text id="text90" transform="matrix(1 0 0 1 307.9968 20.9565)" class="st1 st2 st3">left atrium</text>
	</a>
	
		<image style="overflow:visible;enable-background:new    ;" width="127" height="109" id="image92" xlink:href="C:\Users\rr200\Documents\cycif.org-master-old\_includes\9478D0B7.png"  transform="matrix(0.2653 0 0 0.2653 308.4518 24.7284)">
	</image>
</g>
<line class="st6" x1="300.1" y1="38.3" x2="236.9" y2="38.3"/>
<g>
	<g>
		<line class="st6" x1="237.3" y1="38.3" x2="237.3" y2="137.6"/>
		<g>
			<polygon class="st7" points="236.4,137 237.3,140.4 238.2,137 			"/>
		</g>
	</g>
</g>
<g>
	<g>
		<line class="st6" x1="752.4" y1="190.3" x2="710.7" y2="190.3"/>
		<g>
			<polygon class="st7" points="712.6,188 702.4,190.3 712.6,192.5 			"/>
		</g>
	</g>
</g>
<line class="st6" x1="753" y1="190.3" x2="753" y2="119.6"/>
<line class="st6" x1="833" y1="119.6" x2="753" y2="119.6"/>
<g>
	<g>
		<line class="st6" x1="251.1" y1="196.1" x2="232.4" y2="196.1"/>
		<g>
			<polygon class="st7" points="232.9,193.5 230,196.1 232.9,198.5 			"/>
		</g>
	</g>
</g>
<line class="st6" x1="296.5" y1="196" x2="247.3" y2="196"/>
<g>
	<g>
		<line class="st6" x1="300.1" y1="174.9" x2="266.5" y2="174.9"/>
		<g>
			<polygon class="st7" points="267.2,172.7 262.1,174.9 267.2,177 			"/>
		</g>
	</g>
</g>
<line class="st6" x1="300.5" y1="100.2" x2="300.5" y2="175.2"/>
<line class="st6" x1="345" y1="100.2" x2="300" y2="100.2"/>
<g>
	<g>
		<line class="st6" x1="263.4" y1="215.5" x2="263.4" y2="310.2"/>
		<g>
			<polygon class="st7" points="261.2,216.2 263.4,212.3 265.6,216.2 			"/>
		</g>
	</g>
</g>
<line class="st6" x1="298.6" y1="310.2" x2="263.2" y2="310.2"/>
</svg>
